<svg viewBox="0 0 16 16" xmlns="http://www.w3.org/2000/svg">
    <path d="M0.75,8L0.75,10.9C0.75,11.301 1.074,11.625 1.475,11.625L2.2,11.625L2.2,7.275L1.475,7.275C1.074,7.275 0.75,7.599 0.75,8ZM11.262,4.375L8.725,4.375L8.725,2.925C8.725,2.524 8.401,2.2 8,2.2C7.599,2.2 7.275,2.524 7.275,2.925L7.275,4.375L4.738,4.375C3.736,4.375 2.925,5.186 2.925,6.188L2.925,12.35C2.925,13.15 3.575,13.8 4.375,13.8L11.625,13.8C12.425,13.8 13.075,13.15 13.075,12.35L13.075,6.188C13.075,5.186 12.264,4.375 11.262,4.375ZM6.55,11.625L5.1,11.625L5.1,10.9L6.55,10.9L6.55,11.625ZM5.825,8.906C5.324,8.906 4.919,8.501 4.919,8C4.919,7.499 5.324,7.094 5.825,7.094C6.326,7.094 6.731,7.499 6.731,8C6.731,8.501 6.326,8.906 5.825,8.906ZM8.725,11.625L7.275,11.625L7.275,10.9L8.725,10.9L8.725,11.625ZM10.9,11.625L9.45,11.625L9.45,10.9L10.9,10.9L10.9,11.625ZM10.175,8.906C9.674,8.906 9.269,8.501 9.269,8C9.269,7.499 9.674,7.094 10.175,7.094C10.676,7.094 11.081,7.499 11.081,8C11.081,8.501 10.676,8.906 10.175,8.906ZM14.525,7.275L13.8,7.275L13.8,11.625L14.525,11.625C14.926,11.625 15.25,11.301 15.25,10.9L15.25,8C15.25,7.599 14.926,7.275 14.525,7.275Z" />
</svg>
