<svg viewBox="0 0 16 16" xmlns="http://www.w3.org/2000/svg"><path d="M.75 8v2.9c0 .401.324.725.725.725H2.2v-4.35h-.725A.724.724 0 00.75 8zm10.512-3.625H8.725v-1.45a.724.724 0 10-1.45 0v1.45H4.738a1.812 1.812 0 00-1.813 1.813v6.162c0 .8.65 1.45 1.45 1.45h7.25c.8 0 1.45-.65 1.45-1.45V6.188a1.812 1.812 0 00-1.813-1.813zm-4.712 7.25H5.1V10.9h1.45v.725zm-.725-2.719a.905.905 0 11-.002-1.81.905.905 0 01.002 1.81zm2.9 2.719h-1.45V10.9h1.45v.725zm2.175 0H9.45V10.9h1.45v.725zm-.725-2.719a.905.905 0 11-.002-1.81.905.905 0 01.002 1.81zm4.35-1.631H13.8v4.35h.725a.724.724 0 00.725-.725V8a.724.724 0 00-.725-.725z"/></svg>